<?xml version="1.0" encoding="utf-8"?>
<!-- Generator: Adobe Illustrator 28.1.0, SVG Export Plug-In . SVG Version: 6.00 Build 0)  -->
<svg version="1.1" id="Camada_1" xmlns="http://www.w3.org/2000/svg" xmlns:xlink="http://www.w3.org/1999/xlink" x="0px" y="0px"
	 viewBox="0 0 283.5 319.6" style="enable-background:new 0 0 283.5 319.6;" xml:space="preserve" fill="#F5EFE8">
<style type="text/css">
	.st0{fill:url(#SVGID_1_);}
</style>
<path d="M260,301.3l-2,11.1c-0.1,0.8-0.2,1.4-0.2,1.8c0,1.2,0.5,1.6,1.9,1.6c1.8,0,2.4-0.6,2.9-3.4l2-11.1h4.4l-2.1,11.8
	c-0.4,2.6-0.8,3.5-1.8,4.4c-1.3,1.3-2.9,1.8-5.7,1.8c-2.5,0-4.1-0.5-5.1-1.6c-0.7-0.8-1-1.7-1-3c0-0.8,0.1-1.7,0.4-3.2l1.8-10.3H260
	z M241.8,301.3h4.4l-2.5,14.2h7.2l-0.6,3.6h-11.6L241.8,301.3z M231.6,309.6c0.9,0,1.4-0.2,1.7-0.6c0.5-0.6,0.8-1.7,0.8-2.7
	c0-1.1-0.4-1.5-1.7-1.5h-1.9l-0.8,4.8H231.6z M228.1,319.1h-4.4l3.1-17.8h5.7c2.3,0,3.4,0.2,4.4,0.8c1.1,0.7,1.7,2,1.7,3.5
	c0,1.2-0.3,2.7-0.7,3.9s-1.3,2.3-2.4,2.8c-1.1,0.6-2.1,0.8-4.2,0.8h-2.3L228.1,319.1z M204.9,301.3h1.5l6.9,15.1l2.7-15.1h1.5
	l-3.1,17.8h-1.5l-6.9-15.1l-2.7,15.1h-1.5L204.9,301.3z M197,308.2c0.1-0.8,0.2-1.5,0.2-2.1c0-2.3-1.4-3.7-3.9-3.7
	c-1.7,0-2.9,0.5-3.9,1.8c-0.8,1-1.2,2-1.5,4l-0.7,4.1c-0.1,0.7-0.2,1.6-0.2,2.1c0,2.3,1.4,3.7,3.9,3.7c1.7,0,2.9-0.5,3.9-1.7
	c0.8-1,1.2-2,1.5-4L197,308.2z M186.4,307.8c0.4-2.5,1-3.7,2.2-4.9c1.3-1.2,2.8-1.8,4.8-1.8c3.4,0,5.4,1.8,5.4,4.8
	c0,0.6-0.1,1.4-0.2,2.3l-0.8,4.4c-0.4,2.5-1,3.7-2.2,4.9c-1.3,1.2-2.7,1.8-4.7,1.8c-1.9,0-3.2-0.4-4.1-1.3c-0.9-0.8-1.3-2-1.3-3.4
	c0-0.6,0.1-1.5,0.2-2.4L186.4,307.8z M180.9,301.3h1.5l-3.1,17.8h-1.5L180.9,301.3z M170.2,302.6H165l0.2-1.3h12l-0.2,1.3h-5.2
	l-2.9,16.5h-1.5L170.2,302.6z M160,301.3h1.5l-3.1,17.8h-1.5L160,301.3z M146.8,301.3h1.5l-2.9,16.5h8.6l-0.2,1.3h-10.2L146.8,301.3
	z M136.3,303.3l-5.6,10.4h7.5L136.3,303.3z M130.2,315l-2.2,4.1h-1.7l9.7-17.8h1.4l3.4,17.8h-1.6l-0.7-4.1H130.2z M124.2,308.2
	c0.2-0.8,0.2-1.5,0.2-2.1c0-2.3-1.4-3.7-3.9-3.7c-1.7,0-2.9,0.5-3.9,1.8c-0.8,1-1.2,2-1.5,4l-0.7,4.1c-0.1,0.7-0.2,1.6-0.2,2.1
	c0,2.3,1.4,3.7,3.9,3.7c1.7,0,2.9-0.5,3.9-1.7c0.8-1,1.2-2,1.5-4L124.2,308.2z M113.6,307.8c0.4-2.5,1-3.7,2.2-4.9
	c1.3-1.2,2.8-1.8,4.8-1.8c3.4,0,5.4,1.8,5.4,4.8c0,0.6-0.1,1.4-0.2,2.3l-0.8,4.4c-0.4,2.5-1,3.7-2.2,4.9c-1.3,1.2-2.7,1.8-4.7,1.8
	c-1.9,0-3.2-0.4-4.1-1.3c-0.9-0.8-1.3-2-1.3-3.4c0-0.6,0.1-1.5,0.2-2.4L113.6,307.8z M107.9,315.1c-0.6,2.7-2.8,4.2-6,4.2
	c-3.3,0-5.1-1.7-5.1-4.7c0-0.8,0.1-1.6,0.3-2.8l0.6-3.6c0.5-2.8,1-4,2.1-5.2c1.2-1.3,2.7-1.9,4.7-1.9c3.1,0,5,1.4,5,3.7
	c0,0.2,0,0.3,0,0.6l-1.5,0.1c0-0.6,0-0.8-0.1-1.2c-0.4-1.1-1.7-1.8-3.4-1.8c-1.7,0-2.9,0.6-3.9,1.9c-0.7,1-1,2-1.4,4.1l-0.6,3.5
	c-0.2,1-0.2,1.8-0.2,2.4c0,2.4,1.2,3.6,3.6,3.6c2.3,0,3.9-1.1,4.5-3.1L107.9,315.1z M86.8,308.7l-2.5,6.9h4.9L86.8,308.7z
	 M84.1,316.4l-0.9,2.7H82l4.3-11.8h1l4.3,11.8h-1.1l-0.9-2.7H84.1z M76.2,318.2c2.2,0,3.4-1.2,3.3-3.7v-2.7c0-2.5-1.1-3.8-3.3-3.7
	h-2.5v10.1H76.2z M72.7,307.3h3.7c2.8,0,4.3,1.5,4.2,4.5v2.9c0.1,2.9-1.4,4.5-4.2,4.5h-3.7V307.3z M65.3,311.8
	c0-1.4-0.2-2.2-0.7-2.8c-0.5-0.7-1.3-1-2.3-1c-1.1,0-1.9,0.4-2.4,1.2c-0.4,0.6-0.6,1.4-0.6,2.6v2.7c0,1.4,0.2,2.2,0.7,2.8
	c0.5,0.7,1.3,1,2.3,1c1.1,0,1.9-0.4,2.4-1.2c0.4-0.6,0.6-1.4,0.6-2.6V311.8z M58.2,311.7c0-1.6,0.3-2.6,1-3.4
	c0.8-0.8,1.7-1.2,3.1-1.2c1.5,0,2.5,0.5,3.3,1.4c0.6,0.8,0.8,1.7,0.8,3.2v2.9c0,1.6-0.3,2.6-1,3.4c-0.8,0.8-1.7,1.2-3.1,1.2
	c-1.5,0-2.5-0.5-3.3-1.4c-0.6-0.8-0.8-1.7-0.8-3.2V311.7z M52,313c1.7,0,2.5-0.8,2.5-2.4c0-1.6-0.9-2.4-2.6-2.4h-2.8v4.8H52z
	 M49,319.1h-1v-11.8h3.9c1.3,0,2.2,0.2,2.7,0.9c0.6,0.6,0.8,1.3,0.8,2.4c0,1.9-0.8,3-2.5,3.2l2.6,5.3h-1.1l-2.5-5.2H49V319.1z
	 M41.9,318.2c0.8,0,1.2-0.1,1.6-0.5c0.4-0.4,0.7-1.1,0.7-1.8c0-0.8-0.3-1.6-0.7-2c-0.4-0.3-0.8-0.5-1.5-0.5h-3.4v4.8H41.9z
	 M41.7,312.6c0.8,0,1.2-0.1,1.6-0.5c0.4-0.4,0.7-1,0.7-1.7c0-0.8-0.3-1.4-0.8-1.8c-0.4-0.3-0.8-0.4-1.5-0.4h-3.2v4.4H41.7z
	 M37.5,307.3h4.3c1.2,0,1.8,0.2,2.4,0.7c0.6,0.5,0.9,1.4,0.9,2.3c0,1.3-0.5,2.1-1.5,2.6c0.6,0.3,0.8,0.4,1,0.7
	c0.5,0.5,0.7,1.4,0.7,2.3c0,1.1-0.4,2-1,2.5c-0.5,0.5-1.2,0.6-2.2,0.6h-4.5V307.3z M24.1,307.3h1l3.9,8.1l3.9-8.1h1v11.8h-1v-9.8
	l-3.6,7.4h-0.7l-3.6-7.4v9.8h-1V307.3z M14.8,307.3h6.7v0.9h-5.7v4.5h4.9v0.9h-4.9v4.7h5.7v0.9h-6.7V307.3z M1.4,307.3h1l3.9,8.1
	l3.9-8.1h1v11.8h-1v-9.8l-3.6,7.4H6l-3.6-7.4v9.8h-1V307.3z M271.8,314c0.5,1.4,1.5,1.9,3.4,1.9c1.7,0,2.7-0.7,2.7-2.1
	c0-0.7-0.4-1.1-1.5-1.4c-2.8-0.7-3.4-0.9-4.3-1.6c-1.1-0.8-1.5-1.9-1.5-3.4c0-3.9,2.6-6.3,6.9-6.3c3.3,0,5.2,1,6.1,3.1l-3.6,2.1
	c-0.6-1.2-1.4-1.6-2.7-1.6c-1.4,0-2.2,0.8-2.2,2c0,0.9,0.5,1.3,2.7,1.9c3.5,0.9,4.7,2,4.7,4.4c0,2-0.6,3.8-1.7,4.8
	c-1.2,1.1-3.1,1.7-5.5,1.7c-2.1,0-4.1-0.5-5.3-1.3c-0.8-0.5-1.2-1-1.6-2L271.8,314z"/>
<linearGradient id="SVGID_1_" gradientUnits="userSpaceOnUse" x1="141.7319" y1="283.6539" x2="141.7319" y2="0.1889">
	<stop  offset="0" style="stop-color:#E30613"/>
	<stop  offset="1" style="stop-color:#AA2A14"/>
</linearGradient>
<path class="st0" d="M131.8,244.5v4.7h3.2c0.8,0,1.4-0.3,1.8-0.7c0.4-0.5,0.6-1,0.7-1.6c0-0.6-0.2-1.2-0.7-1.6
	c-0.4-0.5-1-0.7-1.8-0.7H131.8z M152.9,244.6c-0.4,0.2-0.7,0.4-0.9,0.7c-0.2,0.2-0.3,0.5-0.5,0.8c-0.1,0.4-0.2,0.9-0.3,1.6
	c-0.1,0.7-0.1,1.8-0.1,3.2c0,1.4,0,2.5,0.1,3.2c0.1,0.7,0.2,1.3,0.3,1.6c0.1,0.3,0.3,0.6,0.5,0.8c0.2,0.3,0.5,0.5,0.9,0.7
	c0.4,0.2,0.8,0.3,1.4,0.3c0.5,0,1-0.1,1.4-0.3c0.4-0.2,0.7-0.4,0.9-0.7c0.2-0.2,0.3-0.5,0.4-0.8c0.1-0.3,0.2-0.9,0.3-1.6
	c0.1-0.7,0.1-1.8,0.1-3.2s0-2.5-0.1-3.2c-0.1-0.7-0.2-1.3-0.3-1.6c-0.1-0.4-0.3-0.6-0.4-0.8c-0.2-0.3-0.5-0.5-0.9-0.7
	c-0.4-0.2-0.8-0.3-1.4-0.3C153.7,244.3,153.3,244.4,152.9,244.6 M140.6,170.2h22l-11-34.6L140.6,170.2z M55.6,248.3v-8.9h5.7v23.1
	h-5.7v-9.2h-6v9.2h-5.7v-23.1h5.7v8.9H55.6z M65.7,239.4h15.7v5.1h-10v3.9h8.6v5.1h-8.6v4.1h10v5.1H65.7V239.4z M116.9,239.4h7
	l-7.9,9.4l8.2,13.8h-6.6l-5.3-9.5l-2,2.2v7.2h-5.6v-23.1h5.6v8.2L116.9,239.4z M126.1,239.4h9.2c1.7,0,3.2,0.4,4.3,1.1
	c1.2,0.7,2.1,1.6,2.7,2.7c0.6,1.1,0.9,2.3,0.9,3.6c0,1.3-0.3,2.5-0.9,3.6c-0.6,1.1-1.5,2-2.7,2.7c-1.2,0.7-2.6,1.1-4.3,1.1h-3.5v8.3
	h-5.7V239.4z M166.6,239.4h5.7v23.1h-5.7V239.4z M189.1,239.4h5.7v23.1h-5l-7.4-11.6v11.6h-5.7v-23.1h5l7.4,11.6V239.4z
	 M197.8,239.4h17.1v5.1h-5.7v18.1h-5.7v-18.1h-5.7V239.4z M224.6,239.4h5.7v18.1h9.7v5.1h-15.4V239.4z M254.4,239.4h6.5l-6.8,11.3
	l7.2,11.9h-6.5l-3.8-7.1l-3.8,7.1h-6.5l7.2-11.9l-6.8-11.3h6.5l3.4,6.5L254.4,239.4z M150.6,262.1c-1-0.4-2-1.1-2.8-1.9
	c-0.8-0.8-1.4-1.7-1.7-2.7c-0.3-1-0.5-2-0.6-3.1c-0.1-1.1-0.1-2.2-0.1-3.4c0-1.2,0-2.3,0.1-3.4s0.3-2.1,0.6-3.1
	c0.3-1,0.9-1.9,1.7-2.7c0.8-0.8,1.8-1.5,2.8-1.9c1-0.4,2.3-0.7,3.7-0.7c1.4,0,2.6,0.2,3.7,0.7c1,0.4,2,1.1,2.8,1.9
	c0.8,0.8,1.4,1.7,1.7,2.7c0.3,1,0.5,2,0.6,3.1c0.1,1.1,0.1,2.2,0.1,3.4c0,1.2,0,2.3-0.1,3.4c-0.1,1.1-0.3,2.1-0.6,3.1
	c-0.3,1-0.9,1.9-1.7,2.7c-0.8,0.8-1.8,1.5-2.8,1.9c-1,0.4-2.3,0.7-3.7,0.7C152.8,262.8,151.6,262.5,150.6,262.1 M32.5,262.8
	c-1.3,0-2.5-0.2-3.6-0.7c-1.1-0.4-2-1.1-2.8-1.9c-0.8-0.8-1.4-1.7-1.7-2.7c-0.3-1-0.5-2-0.6-3.1c-0.1-1.1-0.1-2.2-0.1-3.4
	c0-1.2,0-2.3,0.1-3.4s0.3-2.1,0.6-3.1c0.3-1,0.9-1.9,1.7-2.7c0.8-0.8,1.8-1.5,2.8-1.9c1.1-0.4,2.3-0.7,3.6-0.7
	c2.2,0,4.1,0.6,5.7,1.9c1.6,1.2,2.6,3.1,3.1,5.7h-5.8c-0.2-0.7-0.5-1.2-0.9-1.7c-0.4-0.5-1.1-0.7-2.1-0.7c-0.5,0-1,0.1-1.4,0.3
	s-0.7,0.4-0.9,0.7c-0.2,0.2-0.3,0.5-0.5,0.8c-0.1,0.4-0.2,0.9-0.3,1.7c-0.1,0.8-0.1,1.8-0.1,3.2c0,1.4,0,2.5,0.1,3.2
	c0.1,0.8,0.2,1.3,0.3,1.7c0.1,0.4,0.3,0.6,0.5,0.8c0.2,0.3,0.5,0.5,0.9,0.7c0.4,0.2,0.8,0.3,1.4,0.3c0.9,0,1.6-0.3,2.1-0.7
	c0.4-0.5,0.7-1.1,0.9-1.7h5.8c-0.5,2.5-1.5,4.4-3.1,5.7C36.6,262.2,34.7,262.8,32.5,262.8C32.5,262.8,32.5,262.8,32.5,262.8
	 M93.1,262.8c-1.3,0-2.5-0.2-3.6-0.7c-1.1-0.4-2-1.1-2.8-1.9c-0.8-0.8-1.4-1.7-1.7-2.7c-0.3-1-0.5-2-0.6-3.1
	c-0.1-1.1-0.1-2.2-0.1-3.4c0-1.2,0-2.3,0.1-3.4c0.1-1.1,0.3-2.1,0.6-3.1c0.3-1,0.9-1.9,1.7-2.7c0.8-0.8,1.8-1.5,2.8-1.9
	c1.1-0.4,2.3-0.7,3.6-0.7c2.2,0,4.1,0.6,5.7,1.9c1.6,1.2,2.6,3.1,3.1,5.7h-5.8c-0.2-0.7-0.5-1.2-0.9-1.7c-0.4-0.5-1.1-0.7-2.1-0.7
	c-0.5,0-1,0.1-1.4,0.3c-0.4,0.2-0.7,0.4-0.9,0.7c-0.2,0.2-0.3,0.5-0.5,0.8c-0.1,0.4-0.2,0.9-0.3,1.7c-0.1,0.8-0.1,1.8-0.1,3.2
	c0,1.4,0,2.5,0.1,3.2c0.1,0.8,0.2,1.3,0.3,1.7c0.1,0.4,0.3,0.6,0.5,0.8c0.2,0.3,0.5,0.5,0.9,0.7c0.4,0.2,0.8,0.3,1.4,0.3
	c0.9,0,1.6-0.3,2.1-0.7c0.4-0.5,0.7-1.1,0.9-1.7h5.8c-0.5,2.5-1.5,4.4-3.1,5.7C97.3,262.2,95.4,262.8,93.1,262.8
	C93.2,262.8,93.2,262.8,93.1,262.8 M140.1,92.3H163l44,120.5H176l-5.6-17.9h-37.6l-5.6,17.9H96.1L140.1,92.3z M0,0.2v127.4
	c0.5-3,1.3-5.9,2.2-8.7c1.7-5.1,4.7-9.7,8.8-14c4.4-4.4,9.2-7.8,14.7-10.1s11.8-3.5,19-3.5c10.3,0.1,18.8,2.1,25.4,6
	c6.6,3.8,11.7,8.8,15.2,14.8c3.5,6,5.7,12.4,6.6,19.2H62.1c-1.1-4.6-3-8-5.7-10.2c-2.7-2.2-6.6-3.4-11.6-3.3c-2.7,0-5.1,0.6-7.1,1.5
	s-3.5,2.2-4.7,3.7c-0.9,1.1-1.7,2.5-2.4,4.4c-0.7,1.8-1.2,4.7-1.5,8.6c-0.4,3.9-0.5,9.4-0.5,16.7c0,7.2,0.2,12.8,0.5,16.7
	c0.4,3.9,0.9,6.8,1.5,8.7c0.7,1.9,1.4,3.3,2.4,4.4c1.1,1.5,2.7,2.7,4.7,3.6c2,0.9,4.3,1.4,7.1,1.5c3.1,0,5.8-0.4,8-1.3
	c2.2-0.8,3.9-2,5.3-3.5c1.7-1.7,2.9-3.7,3.6-6c0.7-2.3,1-4.6,1-6.9v-1.7H44.7v-24.7h47.4v16.7c0.1,9.6-0.8,17.6-2.7,23.9
	c-1.8,6.3-5,11.7-9.6,16.2c-5.2,5.2-10.7,8.8-16.5,10.8c-5.8,1.9-12.1,2.9-18.7,2.8c-7,0-13.3-1.2-18.8-3.5
	c-5.5-2.3-10.5-5.7-14.8-10.1c-4.2-4.2-7.1-8.9-8.8-14c-1-2.8-1.7-5.7-2.2-8.7v106.1h283.5v-165h-28.3v94.1h-29.7v-94.1h-29.7V92.3
	h87.8V0.2H0z"/>
</svg>
